# xmcd
# 
# Track frame offsets:
#     150
#     16215
#     31552
#     50097
#     68370
#     95200
#     111620
#     130175
#     146657
#     163932
#     181910
# 
# Disc length: 2701
# 
# Revision: 3
# Processed by: cddbd v1.5.2PL0 Copyright (c) Steve Scherf et al.
# Submitted via: fre:ac v1.0.17
# 
DISCID=970a8b0b
DTITLE=Mario - Mario
DYEAR=2002
DGENRE=R&B
TTITLE0=Just A Friend 2002
TTITLE1=C'Mon
TTITLE2=Brad My Hair
TTITLE3=2 Train
TTITLE4=What your Name Is
TTITLE5=Holla Back
TTITLE6=Could U Be
TTITLE7=Put Me On
TTITLE8=Chick Wit Tha Braids
TTITLE9=Never
TTITLE10=Girl In The Picture
EXTD=
EXTT0=
EXTT1=
EXTT2=
EXTT3=
EXTT4=
EXTT5=
EXTT6=
EXTT7=
EXTT8=
EXTT9=
EXTT10=
PLAYORDER=
